/* XPM */
static char *fb3aecad2f01435ba9d97fab22e3e85bu6iswWhHdzadoRWb[] = {
/* columns rows colors chars-per-pixel */
"64 64 5 1 ",
"  c black",
". c black",
"X c gray70",
"o c gray99",
"b c #84FFF2",
/* pixels */
"                                                                ",
"                                                                ",
"                                                                ",
"                                                                ",
"                                                                ",
"                                                                ",
"                     .....................                      ",
"                     .....................                      ",
"               ......ooooooooooooooooooooo.....                 ",
"            ...oooooooooooooooooooooooooooooooo....             ",
"            ...oooooooooooooooooooooooooooooooo....             ",
"          ..XXXooooooooooooooooooooooooooooooooXXXX..           ",
"          ..XXXooooooooooooooooooooooooooooooooXXXX..           ",
"        ..XXoooooooooooooooooooooooooooooooooooooooXX.          ",
"        ..XXoooooooooooooooooooooooooooooooooooooooXX.          ",
"      ..XXoooooooooooooooooooooooooooooooooooooooooooX..        ",
"     .XXooooooooooooooooooooooooooooooooooooooooooooooXX..      ",
"     .XXooooooooooooooooooooooooooooooooooooooooooooooXX..      ",
"     .XXooooooooooooooooooooooooooooooooooooooooooooooXX..      ",
"     .XXooooooooooooooooooooooooooooooooooooooooooooooXX..      ",
"   ..XooooooooooooooooooooooooooooooooooooooooooooooooooXX..    ",
"   ..XooooooooooooooooooooooooooooooooooooooooooooooooooXX..    ",
"   ..oooooooo...........oooooooooooooo...........ooooooooo..    ",
"   ..oooooooo...........oooooooooooooo...........ooooooooo..    ",
"   ..ooooo................ooooooooooo....bbbbbb......ooooo..    ",
"   ..ooo..................ooooooooooo...bbbbbbbbb.....oooo..    ",
"   ..ooo..................ooooooooooo..bbbbbbbbbbb....oooo..    ",
"   ..ooo.........oooo.....ooooooooooo..bbbb..bbbbb....oooo..    ",
"   ..ooo.........oooo.....ooooooooooo..bbbb..bbbbb....oooo..    ",
"   ..ooo.........oooo.....ooooooooooo..bbbb..bbbbb....oooo..    ",
"   ..ooo.........oooo.....ooooooooooo...bbbbbbbbb.....oooo..    ",
"     .XXoo..............ooooo....ooooo....bbbbbb.....oXX..      ",
"     .XXooooX...........ooooo....ooooo...........XXoooXX..      ",
"     .XXooooX...........ooooo....ooooo...........XXoooXX..      ",
"      ..XXoooooXXXXXX.oooooo.......ooooo..XXXXXooooooX..        ",
"      ..XXoooooXXXXXX.oooooo.......ooooo..XXXXXooooooX..        ",
"      ..XXooooooo....ooooooo.......ooooooo...ooooooooX..        ",
"      ..XXooooooo....ooooooo.......ooooooo...ooooooooX..        ",
"     .ooooooo..ooooooooooooo.......oooooooooooo..ooooooo..      ",
"     .ooooooo..ooooooooooooo.......oooooooooooo..ooooooo..      ",
"     .ooooooo....oooooooooooooooooooooooooooooo....ooooo..      ",
"     .XXoo.....XX....ooooooooooooooooooooooo.........oXX..      ",
"     .XXoo.....XX....ooooooooooooooooooooooo.........oXX..      ",
"     .XXooooo..  ..XX.......................X....oooooXX..      ",
"     .XXooooo..  ..XX.......................X....oooooXX..      ",
"      ..XXooooo....  XXX..XXX..XXXXXX.XXXX.. ..ooooooX..        ",
"      ..XXooooo....  XXX..XXX..XXXXXX.XXXX.. ..ooooooX..        ",
"      ..XXooooooo....   ..   ..      .    ...ooooooooX..        ",
"        ..XXooooooooo.....   ..      .  ....oooooooXX.          ",
"        ..XXooooooooo.....   ..      .  ....oooooooXX.          ",
"          ..XXXooooooooo................oooooooXXXX..           ",
"          ..XXXooooooooo................oooooooXXXX..           ",
"            ...XXXXXXoooooooooooooooooooooXXXXX....             ",
"            ...XXXXXXoooooooooooooooooooooXXXXX....             ",
"               ......XXXXXXXXXXXXXXXXXXXXX.....                 ",
"               ......XXXXXXXXXXXXXXXXXXXXX.....                 ",
"                     .....................                      ",
"                                                                ",
"                                                                ",
"                                                                ",
"                                                                ",
"                                                                ",
"                                                                ",
"                                                                "
};
