/* XPM */
static char *_f447088af58452f8bb4ff0c277a0e15sn7kiaXrTVHGUFIx[] = {
/* columns rows colors chars-per-pixel */
"64 64 64 1 ",
"  c #509B66",
". c #559E6B",
"X c #5AA16F",
"o c #5DA271",
"O c #5FA473",
"+ c #61A575",
"@ c #63A677",
"# c #69A97C",
"$ c #6AAA7D",
"% c #70AD82",
"& c #73AF85",
"* c #74B086",
"= c #7BB48C",
"- c #7DB48D",
"; c #80B690",
": c #86BA95",
"> c #87BA96",
", c #88BB97",
"< c #89BC98",
"1 c #8BBD9A",
"2 c #8CBD9A",
"3 c #8EBF9D",
"4 c #90BF9E",
"5 c #91C09E",
"6 c #97C4A4",
"7 c #9EC7AA",
"8 c #A0C9AC",
"9 c #A1C9AD",
"0 c #A3CAAF",
"q c #A4CBB0",
"w c #A6CCB1",
"e c #AACEB5",
"r c #ABCFB5",
"t c #ADD0B8",
"y c #B1D2BB",
"u c #BBD8C4",
"i c #BEDAC7",
"p c #C4DDCB",
"a c #C7DFCE",
"s c #CAE1D1",
"d c #CCE2D2",
"f c #CEE3D4",
"g c #D0E4D6",
"h c #D1E5D7",
"j c #D4E6D9",
"k c #D7E8DC",
"l c #DAEADF",
"z c #DFEDE3",
"x c #E1EEE5",
"c c #E2EFE6",
"v c #E5F0E8",
"b c #E7F1EA",
"n c #E9F2EC",
"m c #EDF5EF",
"M c #EEF5F0",
"N c #F1F7F2",
"B c #F3F8F4",
"V c #F3F8F5",
"C c #F5FAF7",
"Z c #F7FBF8",
"A c #F8FBF9",
"S c #FAFCFA",
"D c #FCFDFC",
"F c white",
/* pixels */
"FFFFFFFFFFFFFFFFFFFFFFFFFFFFFFFFFFFFFFFFFFFFFFFFFFFFFFFFFFFFFFFF",
"FFFFFFFFFFFFFFFFFFFFFFFFFFFFFFFFFFFFFFFFFFFFFFFFFFFFFFFFFFFFFFFF",
"FFFFFFFFFFFFFFFFFFFFFFFFFFFFFFFFFFFFFFFFFFFFFFFFFFFFFFFFFFFFFFFF",
"FFFFFFFFFFFFFFFFFFFFFFFFFFFFFFFFFFFFFFFFFFFFFFFFFFFFFFFFFFFFFFFF",
"FFFFFFFFFFFFFFFFFFFFFFFFFFFFFFFFFFFFFFFFFFFFFFFFFFFFFFFFFFFFFFFF",
"FFFFFFFFFFFFFFFFFFFFFFFFFFFFFFFFFFFFFFFFFFFFFFFFFFFFFFFFFFFFFFFF",
"FFFFFFFFFFFFFFFFFFFFFFFFFFFFFFFFFFFFFFFFFFFFFFFFFFFFFFFFFFFFFFFF",
"FFFFFFFFFFFFFFFFFFFFFFFFFFFFFFFFFFFFFFFFFFFFFFFFFFFFFFFFFFFFFFFF",
"FFFFFFFFFFFFFFFFFFFFFFFFFFFFFFFFFFFFFFFFFFFFFFFFFFFFFFFFFFFFFFFF",
"FFFFFFFFFFFFFFFFFFFFFFFFFFFFFFFFFFFFFFFFFFFFFFFFFFFFFFFFFFFFFFFF",
"FFFFFFFFFFFFFFFFFFFFFFFFFFFFFFFFFFFFFFFFFFFFFFFFFFFFFFFFFFFFFFFF",
"FFFFFFFFFFFFFFFFFFFFFFFFFFFFFFFFFFFFFFFFFFFFFFFFFFFFFFFFFFFFFFFF",
"FFFFFFFFFFFFFFFFFFFFFFFFFFFFFFFFFFFFFFFFFFFFFFFFFFFFFFFFFFFFFFFF",
"FFFFFFFFFFFFFFFFFFFFFFFFFFFFFFFFFFFFFFFFFFFFFFFFFFFFFFFFFFFFFFFF",
"FFFFFFFFFFFFFFFFFFFFFFFFFFFFFFFFFFFFFFFFFFFFFFFFFFFFFFFFFFFFFFFF",
"FFFFFFFFFFFFFFFFFFFFFFFFFFFFFFFFFFFFFFFFFFFFFFFFFFFFFFFFFFFFFFFF",
"FFFFFFFFFFFFFFFFFFFFFFFFFFFFFFFFFFFFFFFFFFFFFFFFFFFFFFFFFFFFFFFF",
"FFFFFFFFFFFFFFFFFFFFFFFFFFFFFFFFFFFFFFFFFFFFFFFFFFFFFFFFFFFFFFFF",
"FFFFFFFFFFFFFFFFFFFFFFFFFFFFFFFFFFFFFFFFFFFFFFFFFFFFFFFFFFFFFFFF",
"FFFFFFFFFFFFFFFFFFFFFFFFFFFFFFFFFFFFFFFFFFFFFFFFFFFFFFFFFFFFFFFF",
"FFFFFFFFFFFFFFFFFFFFFFFFFFFFFFFFFFFFFFFFFFFFFFFFFFFFFFFFFFFFFFFF",
"FFFFFFFFFFFFFFFFFFFFFFFFFFFFFFFFFFFFFFFFFFFFFFFFFFFFFFFFFFFFFFFF",
"FFFFFFFFFFFFFFFFFFp6yFFFFFFB69FFFFFFhq-$;wMFFFFFFFFFFFFFFFFFFFFF",
"FFFFFFFFFFFFFFFFFF3  sFFFFFb .FFFFB>       iFFFFFFFFFFFFFFFFFFFF",
"FFFFFFFFFFFFFFFFFF3  .CFFFFb .FFFAO  7jcy*  dFFFFFFFFFFFFFFFFFFF",
"FFFFFFFFFFFFFFFFFF3   1FFFFb .FFF9 .vFFFFF1  lFFFFFFFFFFFFFFFFFF",
"FFFFFFFFFFFFFFFFFF3 *  sFFFb .FFm  uFFFFFFS% -FFFFFFFFFFFFFFFFFF",
"FFFFFFFFFFFFFFFFFF3 e2 .BFFb .FFa XFFFFFFFFu  ZFFFFFFFFFFFFFFFFF",
"FFFFFFFFFFFFFFFFFF3 eCX ,FFb .FFe %FFFFFFFFz  cFFFFFFFFFFFFFFFFF",
"FFFFFFFFFFFFFFFFFF3 eFd  aFb .FF3 ,FFFFFFFFF  hFFFFFFFFFFFFFFFFF",
"FFFFFFFFFFFFFFFFFF3 eFF3 .Nb .FF3 >FFFFFFFFZ  lFFFFFFFFFFFFFFFFF",
"FFFFFFFFFFFFFFFFFF3 eFFCo >b .FF0 $FFFFFFFFz  mFFFFFFFFFFFFFFFFF",
"FFFFFFFFFFFFFFFFFF3 eFFFd  t .FFl  nFFFFFFF9 +FFFFFFFFFFFFFFFFFF",
"FFFFFFFFFFFFFFFFFF3 eFFFF5   .FFF+ =FFFFFFn  9FFFFFFFFFFFFFFFFFF",
"FFFFFFFFFFFFFFFFFF3 eFFFFCX  .FFFnX =NFFFf. +ZFFFFFFFFFFFFFFFFFF",
"FFFFFFFFFFFFFFFFFF3 eFFFFFf  .FFFFz   #=O  OcFFFFFFFFFFFFFFFFFFF",
"FFFFFFFFFFFFFFFFFF5 eFFFFFF3 .FFFFFz;    .7BFFFFFFFFFFFFFFFFFFFF",
"FFFFFFFFFFFFFFFFFFFFFFFFFFFFFFFFFFFFFAclmFFFFFFFFFFFFFFFFFFFFFFF",
"FFFFFFFFFFFFFFFFFFFFFFFFFFFFFFFFFFFFFFFFFFFFFFFFFFFFFFFFFFFFFFFF",
"FFFFFFFFFFFFFFFFFFFFFFFFFFFFFFFFFFFFFFFFFFFFFFFFFFFFFFFFFFFFFFFF",
"FFFFFFFFFFFFFFFFFFFFFFFFFFFFFFFFFFFFFFFFFFFFFFFFFFFFFFFFFFFFFFFF",
"FFFFFFFFFFFFFFFFFFFFFFFFFFFFFFFFFFFFFFFFFFFFFFFFFFFFFFFFFFFFFFFF",
"FFFFFFFFFFFFFFFFFFFFFFFFFFFFFFFFFFFFFFFFFFFFFFFFFFFFFFFFFFFFFFFF",
"FFFFFFFFFFFFFFFFFFFFFFFFFFFFFFFFFFFFFFFFFFFFFFFFFFFFFFFFFFFFFFFF",
"FFFFFFFFFFFFFFFFFFFFFFFFFFFFFFFFFFFFFFFFFFFFFFFFFFFFFFFFFFFFFFFF",
"FFFFFFFFFFFFFFFFFFFFFFFFFFFFFFFFFFFFFFFFFFFFFFFFFFFFFFFFFFFFFFFF",
"FFFFFFFFFFFFFFFFFFFFFFFFFFFFFFFFFFFFFFFFFFFFFFFFFFFFFFFFFFFFFFFF",
"FFFFFFFFFFFFFFFFFFFFFFFFFFFFFFFFFFFFFFFFFFFFFFFFFFFFFFFFFFFFFFFF",
"FFFFFFFFFFFFFFFFFFFFFFFFFFFFFFFFFFFFFFFFFFFFFFFFFFFFFFFFFFFFFFFF",
"FFFFFFFFFFFFFFFFFFFFFFFFFFFFFFFFFFFFFFFFFFFFFFFFFFFFFFFFFFFFFFFF",
"FFFFFFFFFFFFFFFFFFFFFFFFFFFFFFFFFFFFFFFFFFFFFFFFFFFFFFFFFFFFFFFF",
"FFFFFFFFFFFFFFFFFFFFFFFFFFFFFFFFFFFFFFFFFFFFFFFFFFFFFFFFFFFFFFFF",
"FFFFFFFFFFFFFFFFFFFFFFFFFFFFFFFFFFFFFFFFFFFFFFFFFFFFFFFFFFFFFFFF",
"FFFFFFFFFFFFFFFFFFFFFFFFFFFFFFFFFFFFFFFFFFFFFFFFFFFFFFFFFFFFFFFF",
"FFFFFFFFFFFFFFFFFFFFFFFFFFFFFFFFFFFFFFFFFFFFFFFFFFFFFFFFFFFFFFFF",
"FFFFFFFFFFFFFFFFFFFFFFFFFFFFFFFFFFFFFFFFFFFFFFFFFFFFFFFFFFFFFFFF",
"FFFFFFFFFFFFFFFFFFFFFFFFFFFFFFFFFFFFFFFFFFFFFFFFFFFFFFFFFFFFFFFF",
"FFFFFFFFFFFFFFFFFFFFFFFFFFFFFFFFFFFFFFFFFFFFFFFFFFFFFFFFFFFFFFFF",
"FFFFFFFFFFFFFFFFFFFFFFFFFFFFFFFFFFFFFFFFFFFFFFFFFFFFFFFFFFFFFFFF",
"FFFFFFFFFFFFFFFFFFFFFFFFFFFFFFFFFFFFFFFFFFFFFFFFFFFFFFFFFFFFFFFF",
"FFFFFFFFFFFFFFFFFFFFFFFFFFFFFFFFFFFFFFFFFFFFFFFFFFFFFFFFFFFFFFFF",
"FFFFFFFFFFFFFFFFFFFFFFFFFFFFFFFFFFFFFFFFFFFFFFFFFFFFFFFFFFFFFFFF",
"FFFFFFFFFFFFFFFFFFFFFFFFFFFFFFFFFFFFFFFFFFFFFFFFFFFFFFFFFFFFFFFF",
"FFFFFFFFFFFFFFFFFFFFFFFFFFFFFFFFFFFFFFFFFFFFFFFFFFFFFFFFFFFFFFFF"
};
