/* XPM */
static char *_fd0520e6677495bd6514b10fbb652d8Z3QCcCuPNO5JwGaG[] = {
/* columns rows colors chars-per-pixel */
"64 64 56 1 ",
"  c #509B66",
". c #539D68",
"X c #559E6B",
"o c #58A06D",
"O c #5FA473",
"+ c #61A575",
"@ c #63A677",
"# c #65A778",
"$ c #6AAA7D",
"% c #6EAC80",
"& c #72AE83",
"* c #73AF85",
"= c #74B086",
"- c #77B188",
"; c #78B289",
": c #7FB68F",
"> c #87BA96",
", c #88BB97",
"< c #89BC98",
"1 c #8BBD9A",
"2 c #8CBD9A",
"3 c #8EBF9D",
"4 c #90BF9E",
"5 c #93C1A0",
"6 c #97C3A4",
"7 c #9BC6A7",
"8 c #A1C9AD",
"9 c #A6CCB1",
"0 c #A6CCB2",
"q c #ABCFB6",
"w c #AFD2B9",
"e c #B1D2BB",
"r c #B5D5BE",
"t c #B8D6C1",
"y c #BCD9C5",
"u c #C1DBC8",
"i c #C1DCC9",
"p c #C7DFCE",
"a c #CAE1D1",
"s c #D2E5D7",
"d c #D3E6D9",
"f c #D5E7DA",
"g c #D8E9DD",
"h c #DAEADF",
"j c #DDEBE1",
"k c #DFEDE3",
"l c #E1EEE5",
"z c #E4EFE7",
"x c #E6F1E9",
"c c #EBF4EE",
"v c #F1F7F2",
"b c #F3F8F4",
"n c #F5FAF7",
"m c #F7FAF8",
"M c #FAFCFA",
"N c white",
/* pixels */
"NNNNNNNNNNNNNNNNNNNNNNNNNNNNNNNNNNNNNNNNNNNNNNNNNNNNNNNNNNNNNNNN",
"NNNNNNNNNNNNNNNNNNNNNNNNNNNNNNNNNNNNNNNNNNNNNNNNNNNNNNNNNNNNNNNN",
"NNNNNNNNNNNNNNNNNNNNNNNNNNNNNNNNNNNNNNNNNNNNNNNNNNNNNNNNNNNNNNNN",
"NNNNNNNNNNNNNNNNNNNNNNNNNNNNNNNNNNNNNNNNNNNNNNNNNNNNNNNNNNNNNNNN",
"NNNNNNNNNNNNNNNNNNNNNNNNNNNNNNNNNNNNNNNNNNNNNNNNNNNNNNNNNNNNNNNN",
"NNNNNNNNNNNNNNNNNNNNNNNNNNNNNNNNNNNNNNNNNNNNNNNNNNNNNNNNNNNNNNNN",
"NNNNNNNNNNNNNNNNNNNNNNNNNNNNNNNNNNNNNNNNNNNNNNNNNNNNNNNNNNNNNNNN",
"NNNNNNNNNNNNNNNNNNNNNNNNNNNNNNNNNNNNNNNNNNNNNNNNNNNNNNNNNNNNNNNN",
"NNNNNNNNNNNNNNNNNNNNNNNNNNNNNNNNNNNNNNNNNNNNNNNNNNNNNNNNNNNNNNNN",
"NNNNNNNNNNNNNNNNNNNNNNNNNNNNNNNNNNNNNNNNNNNNNNNNNNNNNNNNNNNNNNNN",
"NNNNNNNNNNNNNNNNNNNNNNNNNNNNNNNNNNNNNNNNNNNNNNNNNNNNNNNNNNNNNNNN",
"NNNNNNNNNNNNNNNNNNNNNNNNNNNNNNNNNNNNNNNNNNNNNNNNNNNNNNNNNNNNNNNN",
"NNNNNNNNNNNNNNNNNNNNNNNNNNNNNNNNNNNNNNNNNNNNNNNNNNNNNNNNNNNNNNNN",
"NNNNNNNNNNNNNNNNNNNNNNNNNNNNNNNNNNNNNNNNNNNNNNNNNNNNNNNNNNNNNNNN",
"NNNNNNNNNNNNNNNNNNNNNNNNNNNNNNNNNNNNNNNNNNNNNNNNNNNNNNNNNNNNNNNN",
"NNNNNNNNNNNNNNNNNNNNNNNNNNNNNNNNNNNNNNNNNNNNNNNNNNNNNNNNNNNNNNNN",
"NNNNNNNNNNNNNNNNNNNNNNNNNNNNNNNNNNNNNNNNNNNNNNNNNNNNNNNNNNNNNNNN",
"NNNNNNNNNNNNNNNNNNNNNNNNNNNNNNNNNNNNNNNNNNNNNNNNNNNNNNNNNNNNNNNN",
"NNNNNNNNNNNNNNNNNNNNNNNNNNNNNNNNNNNNNNNNNNNNNNNNNNNNNNNNNNNNNNNN",
"NNNNNNNNNNNNNNNNNNNNNNNNNNNNNNNNNNNNNNNNNNNNNNNNNNNNNNNNNNNNNNNN",
"NNNNNNNNNNNNNNNNNNNNNNNNNNNNNNNNNNNNNNNNNNNNNNNNNNNNNNNNNNNNNNNN",
"NNNNNNNNNNNNNNNNNNNNNNNNNNNNNNNNNNNNNNNNNNNNNNNNNNNNNNNNNNNNNNNN",
"NNNNNNNNNNNNNNNNNNNNNzq,%>qkNNNNNNNNi7=%>tmNNNNNNNNNNNNNNNNNNNNN",
"NNNNNNNNNNNNNNNNNNNNr       rNNNNNl#      XlNNNNNNNNNNNNNNNNNNNN",
"NNNNNNNNNNNNNNNNNNNl  2dlf4  uNNNk  orjg8# XcNNNNNNNNNNNNNNNNNNN",
"NNNNNNNNNNNNNNNNNNN9 $NNNNN= :NNN& &nNNNNm# ObNNNNNNNNNNNNNNNNNN",
"NNNNNNNNNNNNNNNNNNN1 1NNNNNf@-NNi  xNNNNNNcX wNNNNNNNNNNNNNNNNNN",
"NNNNNNNNNNNNNNNNNNNy  ebNNNNNNNN6 >NNNNNNNN1 %NNNNNNNNNNNNNNNNNN",
"NNNNNNNNNNNNNNNNNNNm=   %8fNNNNN; 8NNNNNNNNw XNNNNNNNNNNNNNNNNNN",
"NNNNNNNNNNNNNNNNNNNNN7X    .yNNN@ tNNNNNNNNd  NNNNNNNNNNNNNNNNNN",
"NNNNNNNNNNNNNNNNNNNNNNNf8&   7NN@ rNNNNNNNNa  NNNNNNNNNNNNNNNNNN",
"NNNNNNNNNNNNNNNNNNNNNNNNNNv>  bN* 7NNNNNNNNw ONNNNNNNNNNNNNNNNNN",
"NNNNNNNNNNNNNNNNNNcoXMNNNNNNO uN9 @NNNNNNNN& 3NNNNNNNNNNNNNNNNNN",
"NNNNNNNNNNNNNNNNNNNo uNNNNNNo sNc  qNNNNNNi  fNNNNNNNNNNNNNNNNNN",
"NNNNNNNNNNNNNNNNNNN5  tNNNM5 .NNNa  7NNNNe  1NNNNNNNNNNNNNNNNNNN",
"NNNNNNNNNNNNNNNNNNNb*   ##   uNNNNt  .&*X  *nNNNNNNNNNNNNNNNNNNN",
"NNNNNNNNNNNNNNNNNNNNN7O  . &gNNNNNNp$    @rNNNNNNNNNNNNNNNNNNNNN",
"NNNNNNNNNNNNNNNNNNNNNNNnglNNNNNNNNNNNnjjvNNNNNNNNNNNNNNNNNNNNNNN",
"NNNNNNNNNNNNNNNNNNNNNNNNNNNNNNNNNNNNNNNNNNNNNNNNNNNNNNNNNNNNNNNN",
"NNNNNNNNNNNNNNNNNNNNNNNNNNNNNNNNNNNNNNNNNNNNNNNNNNNNNNNNNNNNNNNN",
"NNNNNNNNNNNNNNNNNNNNNNNNNNNNNNNNNNNNNNNNNNNNNNNNNNNNNNNNNNNNNNNN",
"NNNNNNNNNNNNNNNNNNNNNNNNNNNNNNNNNNNNNNNNNNNNNNNNNNNNNNNNNNNNNNNN",
"NNNNNNNNNNNNNNNNNNNNNNNNNNNNNNNNNNNNNNNNNNNNNNNNNNNNNNNNNNNNNNNN",
"NNNNNNNNNNNNNNNNNNNNNNNNNNNNNNNNNNNNNNNNNNNNNNNNNNNNNNNNNNNNNNNN",
"NNNNNNNNNNNNNNNNNNNNNNNNNNNNNNNNNNNNNNNNNNNNNNNNNNNNNNNNNNNNNNNN",
"NNNNNNNNNNNNNNNNNNNNNNNNNNNNNNNNNNNNNNNNNNNNNNNNNNNNNNNNNNNNNNNN",
"NNNNNNNNNNNNNNNNNNNNNNNNNNNNNNNNNNNNNNNNNNNNNNNNNNNNNNNNNNNNNNNN",
"NNNNNNNNNNNNNNNNNNNNNNNNNNNNNNNNNNNNNNNNNNNNNNNNNNNNNNNNNNNNNNNN",
"NNNNNNNNNNNNNNNNNNNNNNNNNNNNNNNNNNNNNNNNNNNNNNNNNNNNNNNNNNNNNNNN",
"NNNNNNNNNNNNNNNNNNNNNNNNNNNNNNNNNNNNNNNNNNNNNNNNNNNNNNNNNNNNNNNN",
"NNNNNNNNNNNNNNNNNNNNNNNNNNNNNNNNNNNNNNNNNNNNNNNNNNNNNNNNNNNNNNNN",
"NNNNNNNNNNNNNNNNNNNNNNNNNNNNNNNNNNNNNNNNNNNNNNNNNNNNNNNNNNNNNNNN",
"NNNNNNNNNNNNNNNNNNNNNNNNNNNNNNNNNNNNNNNNNNNNNNNNNNNNNNNNNNNNNNNN",
"NNNNNNNNNNNNNNNNNNNNNNNNNNNNNNNNNNNNNNNNNNNNNNNNNNNNNNNNNNNNNNNN",
"NNNNNNNNNNNNNNNNNNNNNNNNNNNNNNNNNNNNNNNNNNNNNNNNNNNNNNNNNNNNNNNN",
"NNNNNNNNNNNNNNNNNNNNNNNNNNNNNNNNNNNNNNNNNNNNNNNNNNNNNNNNNNNNNNNN",
"NNNNNNNNNNNNNNNNNNNNNNNNNNNNNNNNNNNNNNNNNNNNNNNNNNNNNNNNNNNNNNNN",
"NNNNNNNNNNNNNNNNNNNNNNNNNNNNNNNNNNNNNNNNNNNNNNNNNNNNNNNNNNNNNNNN",
"NNNNNNNNNNNNNNNNNNNNNNNNNNNNNNNNNNNNNNNNNNNNNNNNNNNNNNNNNNNNNNNN",
"NNNNNNNNNNNNNNNNNNNNNNNNNNNNNNNNNNNNNNNNNNNNNNNNNNNNNNNNNNNNNNNN",
"NNNNNNNNNNNNNNNNNNNNNNNNNNNNNNNNNNNNNNNNNNNNNNNNNNNNNNNNNNNNNNNN",
"NNNNNNNNNNNNNNNNNNNNNNNNNNNNNNNNNNNNNNNNNNNNNNNNNNNNNNNNNNNNNNNN",
"NNNNNNNNNNNNNNNNNNNNNNNNNNNNNNNNNNNNNNNNNNNNNNNNNNNNNNNNNNNNNNNN",
"NNNNNNNNNNNNNNNNNNNNNNNNNNNNNNNNNNNNNNNNNNNNNNNNNNNNNNNNNNNNNNNN"
};
